<?xml version="1.0" encoding="utf-8"?>
<!-- Generator: Adobe Illustrator 25.0.0, SVG Export Plug-In . SVG Version: 6.00 Build 0)  -->
<svg version="1.1" xmlns="http://www.w3.org/2000/svg" xmlns:xlink="http://www.w3.org/1999/xlink" x="0px" y="0px"
	 viewBox="0 0 1331.88 216.76" style="enable-background:new 0 0 1331.88 216.76;" xml:space="preserve">
<style type="text/css">
	.st0{clip-path:url(#SVGID_2_);fill:url(#SVGID_3_);}
	.st1{clip-path:url(#SVGID_5_);fill:url(#SVGID_6_);}
	.st2{clip-path:url(#SVGID_8_);fill:url(#SVGID_9_);}
	.st3{clip-path:url(#SVGID_11_);fill:url(#SVGID_12_);}
	.st4{fill:#FFFFFF;}
</style>
<g id="Capa_2">
</g>
<g id="Capa_1">
	<g>
		<g>
			<defs>
				<path id="SVGID_1_" d="M162.85,58.34c-10.7,8.08-16.05,19.57-16.05,34.46c0,14.9,4.23,25.82,12.68,32.78
					c8.46,6.96,21.82,12.61,40.08,16.95c11.52,2.85,19.23,5.65,23.13,8.42c3.89,2.77,5.84,6.51,5.84,11.23
					c0,4.72-1.83,8.46-5.5,11.23c-3.67,2.77-8.72,4.15-15.16,4.15c-14.37,0-30.01-7.41-46.92-22.23l-20.88,25.6
					c19.9,18.41,42.28,27.61,67.13,27.61c17.21,0,31.09-4.38,41.65-13.13c10.55-8.76,15.83-20.17,15.83-34.24
					c0-14.07-4.12-24.77-12.35-32.11c-8.23-7.33-19.8-12.83-34.69-16.5c-14.9-3.67-24.4-6.85-28.51-9.54
					c-4.12-2.69-6.17-6.32-6.17-10.89c0-4.57,1.68-8.23,5.05-11c3.37-2.77,7.97-4.15,13.81-4.15c14.52,0,28.59,5.16,42.21,15.49
					l17.74-25.6c-7.78-6.58-16.92-11.68-27.39-15.27c-10.48-3.59-20.96-5.39-31.43-5.39C186.91,46.22,173.55,50.26,162.85,58.34"/>
			</defs>
			<clipPath id="SVGID_2_">
				<use xlink:href="#SVGID_1_"  style="overflow:visible;"/>
			</clipPath>
			
				<linearGradient id="SVGID_3_" gradientUnits="userSpaceOnUse" x1="354.1498" y1="522.488" x2="355.1498" y2="522.488" gradientTransform="matrix(-253.6284 240.8047 240.8047 253.6284 -35684.1602 -217774.4375)">
				<stop  offset="0" style="stop-color:#002E80"/>
				<stop  offset="0.0704" style="stop-color:#002E80"/>
				<stop  offset="0.3065" style="stop-color:#BB6216"/>
				<stop  offset="0.5402" style="stop-color:#A7BF30"/>
				<stop  offset="0.809" style="stop-color:#009BDB"/>
				<stop  offset="1" style="stop-color:#8C1D21"/>
			</linearGradient>
			<polygon class="st0" points="345.72,131.59 199.14,270.76 59.01,123.17 205.6,-16 			"/>
		</g>
		<g>
			<defs>
				<rect id="SVGID_4_" x="5.58" y="49.81" width="113.16" height="31.21"/>
			</defs>
			<clipPath id="SVGID_5_">
				<use xlink:href="#SVGID_4_"  style="overflow:visible;"/>
			</clipPath>
			
				<linearGradient id="SVGID_6_" gradientUnits="userSpaceOnUse" x1="354.1498" y1="522.4935" x2="355.1498" y2="522.4935" gradientTransform="matrix(-253.6265 240.8029 240.8029 253.6265 -35826.9844 -217834.75)">
				<stop  offset="0" style="stop-color:#002E80"/>
				<stop  offset="0.0704" style="stop-color:#002E80"/>
				<stop  offset="0.3065" style="stop-color:#BB6216"/>
				<stop  offset="0.5402" style="stop-color:#A7BF30"/>
				<stop  offset="0.809" style="stop-color:#009BDB"/>
				<stop  offset="1" style="stop-color:#8C1D21"/>
			</linearGradient>
			<polygon class="st1" points="134.32,66.22 59.23,137.52 -10,64.61 65.09,-6.69 			"/>
		</g>
		<g>
			<defs>
				<rect id="SVGID_7_" x="5.58" y="112.51" width="113.16" height="31.21"/>
			</defs>
			<clipPath id="SVGID_8_">
				<use xlink:href="#SVGID_7_"  style="overflow:visible;"/>
			</clipPath>
			
				<linearGradient id="SVGID_9_" gradientUnits="userSpaceOnUse" x1="354.1498" y1="522.4935" x2="355.1498" y2="522.4935" gradientTransform="matrix(-253.627 240.8034 240.8034 253.627 -35795.7578 -217802.2188)">
				<stop  offset="0" style="stop-color:#002E80"/>
				<stop  offset="0.0704" style="stop-color:#002E80"/>
				<stop  offset="0.3065" style="stop-color:#BB6216"/>
				<stop  offset="0.5402" style="stop-color:#A7BF30"/>
				<stop  offset="0.809" style="stop-color:#009BDB"/>
				<stop  offset="1" style="stop-color:#8C1D21"/>
			</linearGradient>
			<polygon class="st2" points="134.32,128.92 59.23,200.22 -10,127.3 65.09,56 			"/>
		</g>
		<g>
			<defs>
				<rect id="SVGID_10_" x="5.58" y="175.68" width="113.16" height="31.21"/>
			</defs>
			<clipPath id="SVGID_11_">
				<use xlink:href="#SVGID_10_"  style="overflow:visible;"/>
			</clipPath>
			
				<linearGradient id="SVGID_12_" gradientUnits="userSpaceOnUse" x1="354.1498" y1="522.4935" x2="355.1498" y2="522.4935" gradientTransform="matrix(-253.6265 240.8029 240.8029 253.6265 -35764.1367 -217768.5625)">
				<stop  offset="0" style="stop-color:#002E80"/>
				<stop  offset="0.0704" style="stop-color:#002E80"/>
				<stop  offset="0.3065" style="stop-color:#BB6216"/>
				<stop  offset="0.5402" style="stop-color:#A7BF30"/>
				<stop  offset="0.809" style="stop-color:#009BDB"/>
				<stop  offset="1" style="stop-color:#8C1D21"/>
			</linearGradient>
			<polygon class="st3" points="134.32,192.09 59.23,263.38 -10,190.47 65.09,119.17 			"/>
		</g>
	</g>
	<g>
		<path class="st4" d="M318.23,200.02c-12.51-7.02-22.31-16.68-29.41-28.98c-7.1-12.3-10.66-26.15-10.66-41.55
			c0-15.39,3.55-29.24,10.66-41.54c7.1-12.3,16.94-21.95,29.52-28.98c12.58-7.02,26.64-10.53,42.18-10.53
			c12.13,0,23.24,2.08,33.3,6.22c10.06,4.15,18.64,10.3,25.75,18.45l-14.43,14.27c-11.69-12.52-26.27-18.79-43.73-18.79
			c-11.54,0-21.97,2.64-31.29,7.92c-9.32,5.28-16.62,12.56-21.87,21.84c-5.25,9.29-7.88,19.66-7.88,31.13
			c0,11.47,2.62,21.85,7.88,31.13c5.26,9.28,12.55,16.56,21.87,21.85c9.32,5.28,19.75,7.93,31.29,7.93
			c17.31,0,31.89-6.35,43.73-19.02l14.43,14.25c-7.1,8.15-15.72,14.34-25.86,18.57c-10.14,4.23-21.28,6.34-33.41,6.34
			C344.75,210.54,330.73,207.03,318.23,200.02"/>
		<path class="st4" d="M545.42,169.12h-82.57l-17.09,39.62h-22.87l70.36-158.46h21.98l70.58,158.46h-23.3L545.42,169.12z
			 M537.65,151.01l-33.52-77.65l-33.52,77.65H537.65z M536.09,26.48h-63.25V4.98h63.25V26.48z"/>
		<path class="st4" d="M632.99,200.02c-12.51-7.02-22.31-16.68-29.41-28.98c-7.1-12.3-10.66-26.15-10.66-41.55
			c0-15.39,3.55-29.24,10.66-41.54c7.1-12.3,16.94-21.95,29.52-28.98c12.58-7.02,26.63-10.53,42.18-10.53
			c12.13,0,23.23,2.08,33.3,6.22c10.06,4.15,18.64,10.3,25.75,18.45l-14.43,14.27c-11.69-12.52-26.27-18.79-43.73-18.79
			c-11.54,0-21.98,2.64-31.3,7.92c-9.32,5.28-16.62,12.56-21.87,21.84c-5.25,9.29-7.88,19.66-7.88,31.13
			c0,11.47,2.63,21.85,7.88,31.13c5.25,9.28,12.54,16.56,21.87,21.85c9.32,5.28,19.75,7.93,31.3,7.93
			c17.31,0,31.88-6.35,43.73-19.02l14.43,14.25c-7.1,8.15-15.72,14.34-25.86,18.57c-10.14,4.23-21.28,6.34-33.41,6.34
			C659.51,210.54,645.49,207.03,632.99,200.02"/>
		<polygon class="st4" points="877.71,189.04 877.71,208.73 764.95,208.73 764.95,50.27 874.61,50.27 874.61,69.96 787.15,69.96 
			787.15,118.63 865.06,118.63 865.06,137.88 787.15,137.88 787.15,189.04 		"/>
		<path class="st4" d="M1016.45,208.73l-33.52-48.67c-4.14,0.31-7.4,0.45-9.77,0.45h-38.4v48.22h-22.2V50.27h60.6
			c20.13,0,35.97,4.91,47.51,14.71c11.54,9.82,17.31,23.32,17.31,40.52c0,12.23-2.96,22.64-8.88,31.24
			c-5.92,8.61-14.36,14.86-25.31,18.79l36.85,53.2H1016.45z M1004.68,131.99c7.4-6.19,11.1-15.02,11.1-26.49
			c0-11.46-3.7-20.25-11.1-26.37c-7.4-6.11-18.14-9.16-32.19-9.16h-37.74v71.3h37.74C986.55,141.27,997.28,138.18,1004.68,131.99"/>
		<path class="st4" d="M1231.87,204.99c-10.88-3.7-19.42-8.48-25.64-14.37l8.21-17.66c5.92,5.44,13.5,9.85,22.76,13.25
			c9.25,3.39,18.76,5.09,28.53,5.09c12.87,0,22.49-2.23,28.85-6.68c6.36-4.45,9.55-10.37,9.55-17.77c0-5.43-1.74-9.85-5.22-13.24
			c-3.47-3.4-7.77-6-12.87-7.81c-5.1-1.81-12.32-3.84-21.64-6.11c-11.69-2.86-21.12-5.73-28.3-8.6
			c-7.19-2.87-13.32-7.28-18.43-13.25c-5.1-5.96-7.66-14-7.66-24.11c0-8.45,2.18-16.07,6.55-22.87
			c4.36-6.79,10.98-12.23,19.86-16.29c8.88-4.08,19.9-6.11,33.08-6.11c9.17,0,18.2,1.21,27.08,3.62c8.88,2.42,16.5,5.88,22.86,10.42
			l-7.32,18.11c-6.51-4.23-13.47-7.44-20.86-9.62c-7.4-2.19-14.65-3.28-21.75-3.28c-12.58,0-22.02,2.34-28.3,7.02
			c-6.29,4.68-9.43,10.72-9.43,18.11c0,5.44,1.77,9.85,5.33,13.25c3.55,3.39,7.95,6.04,13.2,7.92c5.25,1.89,12.39,3.88,21.43,5.99
			c11.69,2.87,21.09,5.74,28.18,8.61c7.11,2.87,13.21,7.24,18.31,13.13c5.11,5.88,7.67,13.81,7.67,23.77
			c0,8.31-2.22,15.89-6.66,22.76c-4.44,6.86-11.18,12.3-20.2,16.29c-9.03,4-20.13,6-33.3,6
			C1254.03,210.54,1242.75,208.7,1231.87,204.99"/>
		<rect x="1072.83" y="50.27" class="st4" width="109.66" height="19.69"/>
		<rect x="1072.83" y="118.49" class="st4" width="109.66" height="19.69"/>
		<rect x="1072.83" y="188.78" class="st4" width="109.66" height="19.69"/>
	</g>
</g>
</svg>
